<?xml version="1.0" encoding="UTF-8"?>
<svg id="Layer_1" xmlns="http://www.w3.org/2000/svg" version="1.1" viewBox="0 0 64 64">
  <!-- Generator: Adobe Illustrator 30.0.0, SVG Export Plug-In . SVG Version: 2.1.1 Build 123)  -->
  <defs>
    <style>
      .st0 {
        fill: #3e5539;
      }
    </style>
  </defs>
  <g id="eye">
    <path class="st0" d="M0,59.5c.1.6.6,1.2,1.1,1.5.4.2.8.3,1.2.3,2.6,0,13.2-5.5,19.8-9,3.5,1.1,5.7,1.2,9.6,1.2h.2c17.6,0,31.9-11.3,31.9-25.1S49.7,3.2,32.1,3.2.1,14.5.1,28.3s3.3,12.8,9,17.5c-.9,1.3-2.6,3.5-3.9,5.1C.7,56.6-.3,58,0,59.5ZM8.4,53.4c4.4-5.5,5.4-7,5.2-8.4,0-.5-.4-1.2-.9-1.5-5.5-4-8.5-9.4-8.5-15.1,0-11.6,12.5-21.1,27.9-21.1s27.9,9.4,27.9,21.1-12.5,21.1-27.9,21.1h-.2c-4,0-5.7,0-9.1-1.2-.5-.2-1.1-.1-1.6.1-4.9,2.7-10.5,5.5-14.3,7.2.6-.7,1.2-1.5,1.7-2.1Z"/>
  </g>
</svg>