<?xml version="1.0" encoding="UTF-8"?>
<svg id="Layer_1" xmlns="http://www.w3.org/2000/svg" version="1.1" viewBox="0 0 64 64">
  <!-- Generator: Adobe Illustrator 30.0.0, SVG Export Plug-In . SVG Version: 2.1.1 Build 123)  -->
  <defs>
    <style>
      .st0 {
        fill: #3e5539;
      }
    </style>
  </defs>
  <g id="eye">
    <path class="st0" d="M58,10.3H6c-3.3,0-6,2.7-6,6v32.7c0,3.3,2.7,6,6,6h52c3.3,0,6-2.7,6-6V16.3c0-3.3-2.7-6-6-6ZM57,14.3l-25,18L7,14.3h50ZM58,51H6c-1.1,0-2-.9-2-2v-31.9l26.8,19.4c.4.3.8.4,1.2.4s.8-.1,1.2-.4l26.8-19.4v31.9c0,1.1-.9,2-2,2Z"/>
  </g>
</svg>