<?xml version="1.0" encoding="UTF-8"?>
<svg id="Layer_1" xmlns="http://www.w3.org/2000/svg" version="1.1" viewBox="0 0 64 64">
  <!-- Generator: Adobe Illustrator 30.0.0, SVG Export Plug-In . SVG Version: 2.1.1 Build 123)  -->
  <defs>
    <style>
      .st0 {
        fill: #3e5539;
      }
    </style>
  </defs>
  <g id="eye">
    <g>
      <circle class="st0" cx="33.3" cy="12.4" r="2.2"/>
      <path class="st0" d="M32,0C14.4,0,0,14.4,0,32s14.4,32,32,32,32-14.4,32-32S49.6,0,32,0ZM32,60c-15.4,0-28-12.6-28-28S16.6,4,32,4s28,12.6,28,28-12.6,28-28,28Z"/>
      <path class="st0" d="M36.7,47.6c-4.2,4.7-7.2,3.2-7.3,3.1,0,0-.2-.1-.3-.1-.3-.1-.7-.3-1-1.1-2.4-5.5,3.1-22.3,5.4-28.2.3-.7.2-1.4-.3-2-.4-.6-1.1-.9-1.8-.8l-4.1.5c-1.1.1-1.9,1.1-1.7,2.2.1,1.1,1.2,1.9,2.2,1.7h.8c-2.4,6.6-7.1,21.5-4.2,28.1.7,1.5,1.7,2.6,3.1,3.2.4.2,1.6.7,3.3.7s5.4-.9,8.8-4.8c.7-.8.7-2.1-.2-2.8-.8-.7-2.1-.7-2.8.2Z"/>
    </g>
  </g>
</svg>