<?xml version="1.0" encoding="UTF-8"?>
<svg id="Layer_1" xmlns="http://www.w3.org/2000/svg" version="1.1" viewBox="0 0 64 64">
  <!-- Generator: Adobe Illustrator 30.0.0, SVG Export Plug-In . SVG Version: 2.1.1 Build 123)  -->
  <defs>
    <style>
      .st0 {
        fill: #3e5539;
      }
    </style>
  </defs>
  <g id="eye">
    <g>
      <path class="st0" d="M50.6,8.1c-4.2-4.7-10.4-7-18.7-7s-14.5,2.4-18.6,7c-6.3,7.1-5.2,16.9-5.1,17.2,1.6,16.3,16.5,33.3,21.6,38,.4.3.8.5,1.3.5h1.3c.5,0,1-.2,1.4-.6,13.1-12.8,20.7-25.9,22-37.9,0-.4,1.1-10.2-5.2-17.3ZM51.8,25c-1.1,10.9-8.1,22.9-20.1,34.8-4.7-4.6-18.2-20.2-19.6-34.9,0,0-.9-8.4,4.2-14.2,3.3-3.8,8.6-5.7,15.7-5.7s12.3,1.9,15.7,5.7c5.1,5.8,4.3,14.1,4.3,14.2Z"/>
      <path class="st0" d="M32,15.2c-5.5,0-10,4.5-10,10s4.5,10,10,10,10-4.5,10-10c0-5.5-4.5-10-10-10ZM32,31.2c-3.3,0-6-2.7-6-6s2.7-6,6-6,6,2.7,6,6-2.7,6-6,6Z"/>
    </g>
  </g>
</svg>