<?xml version="1.0" encoding="UTF-8"?>
<svg id="Layer_1" xmlns="http://www.w3.org/2000/svg" version="1.1" viewBox="0 0 64 64">
  <!-- Generator: Adobe Illustrator 30.0.0, SVG Export Plug-In . SVG Version: 2.1.1 Build 123)  -->
  <defs>
    <style>
      .st0 {
        fill: #3e5539;
      }
    </style>
  </defs>
  <g id="eye">
    <g>
      <path class="st0" d="M46.6,30.1h-12.1v-12.1c0-1.1-.9-2-2-2s-2,.9-2,2v12.1h-12.1c-1.1,0-2,.9-2,2s.9,2,2,2h12.1v12.1c0,1.1.9,2,2,2s2-.9,2-2v-12.1h12.1c1.1,0,2-.9,2-2s-.9-2-2-2Z"/>
      <path class="st0" d="M32,0C14.4,0,0,14.4,0,32s14.4,32,32,32,32-14.4,32-32S49.6,0,32,0ZM32,60c-15.4,0-28-12.6-28-28S16.6,4,32,4s28,12.6,28,28-12.6,28-28,28Z"/>
    </g>
  </g>
</svg>