<svg width="64" height="64" xmlns="http://www.w3.org/2000/svg" xmlns:xlink="http://www.w3.org/1999/xlink" xml:space="preserve" overflow="hidden"><g transform="translate(-608 -328)"><path d="M633.915 380.205C640.292 380.205 646.121 377.861 650.623 374.009L667.98 391.365C668.372 391.756 668.884 391.952 669.398 391.952 669.911 391.952 670.423 391.756 670.816 391.365 671.208 390.972 671.404 390.461 671.404 389.947 671.404 389.433 671.208 388.92 670.816 388.528L653.459 371.172C657.312 366.672 659.656 360.841 659.656 354.465 659.656 340.271 648.107 328.724 633.915 328.724 619.721 328.724 608.173 340.271 608.173 354.465 608.173 368.658 619.721 380.205 633.915 380.205ZM633.915 332.735C645.895 332.735 655.644 342.482 655.644 354.464 655.644 366.444 645.895 376.193 633.915 376.193 621.934 376.193 612.185 366.445 612.185 354.464 612.185 342.482 621.934 332.735 633.915 332.735Z" fill="#C6E6BF"/></g></svg>