<svg width="64" height="64" xmlns="http://www.w3.org/2000/svg" xmlns:xlink="http://www.w3.org/1999/xlink" xml:space="preserve" overflow="hidden"><g transform="translate(-243 -290)"><path d="M306.58 304.88C306.201 304.402 305.621 304.122 305.006 304.122L253.104 304.122 251.409 294.626C251.396 294.551 251.352 294.494 251.328 294.423 251.289 294.291 251.246 294.169 251.18 294.052 251.121 293.942 251.055 293.848 250.977 293.752 250.893 293.651 250.808 293.559 250.704 293.476 250.61 293.399 250.516 293.338 250.408 293.28 250.291 293.213 250.174 293.161 250.045 293.119 249.925 293.08 249.802 293.061 249.674 293.046 249.594 293.037 249.525 293 249.445 293L244.995 293C243.893 293 243 293.879 243 294.966 243 296.052 243.893 296.932 244.995 296.932L247.77 296.932 254.618 335.275 254.645 335.436C254.645 335.438 254.645 335.438 254.645 335.44L256.521 345.941C256.688 346.882 257.516 347.568 258.487 347.568L262.833 347.568C261.651 347.64 260.707 348.588 260.707 349.771 260.707 351.001 261.72 352 262.97 352 264.22 352 265.234 351.002 265.234 349.771 265.234 348.587 264.287 347.64 263.106 347.568L291.153 347.568C289.97 347.64 289.025 348.588 289.025 349.771 289.025 351.001 290.039 352 291.289 352 292.537 352 293.551 351.002 293.551 349.771 293.551 348.587 292.608 347.64 291.424 347.568L294.033 347.568C295.137 347.568 296.029 346.688 296.029 345.601 296.029 344.515 295.136 343.635 294.033 343.635L260.16 343.635 258.987 337.068 297.539 337.068C298.453 337.068 299.25 336.458 299.474 335.586L306.938 306.572C307.09 305.982 306.957 305.36 306.58 304.88ZM295.988 333.137 258.291 333.137 253.915 308.055 302.441 308.055 295.988 333.137Z" fill="#C6E6BF"/></g></svg>