<svg width="64" height="64" xmlns="http://www.w3.org/2000/svg" xmlns:xlink="http://www.w3.org/1999/xlink" xml:space="preserve" overflow="hidden"><defs><clipPath id="clip0"><rect x="475" y="296" width="64" height="64"/></clipPath></defs><g clip-path="url(#clip0)" transform="translate(-475 -296)"><path d="M538.834 357.199C538.067 353.795 532.272 332.658 506.979 332.658 479.607 332.658 475.071 357.406 475.028 357.657 474.93 358.238 475.09 358.836 475.472 359.287 475.853 359.739 476.414 360 477.004 360L536.955 360C536.971 360 536.982 360 536.996 360 538.101 360 539 359.103 539 357.994 539 357.712 538.941 357.441 538.834 357.199ZM479.575 355.988C481.317 350.356 487.552 336.671 506.978 336.671 526.404 336.671 532.64 350.356 534.382 355.988L479.575 355.988Z" fill="#C6E6BF"/><path d="M506.977 328.895C516.04 328.895 523.413 321.518 523.413 312.448 523.412 303.379 516.04 296 506.977 296 497.917 296 490.547 303.379 490.547 312.447 490.547 321.518 497.917 328.895 506.977 328.895ZM506.977 300.012C513.831 300.012 519.405 305.59 519.405 312.448 519.405 319.304 513.832 324.884 506.977 324.884 500.128 324.884 494.555 319.305 494.555 312.448 494.555 305.59 500.128 300.012 506.977 300.012Z" fill="#C6E6BF"/></g></svg>