<?xml version="1.0" encoding="UTF-8"?>
<svg id="Layer_1" xmlns="http://www.w3.org/2000/svg" version="1.1" viewBox="0 0 64 64">
  <!-- Generator: Adobe Illustrator 30.0.0, SVG Export Plug-In . SVG Version: 2.1.1 Build 123)  -->
  <defs>
    <style>
      .st0 {
        stroke: #3e5539;
        stroke-miterlimit: 10;
      }

      .st0, .st1 {
        fill: #3e5539;
      }
    </style>
  </defs>
  <g id="Layer_11">
    <path class="st1" d="M32-.1C14.3-.1,0,14.2,0,31.9s14.3,32,32,32,32-14.4,32-32S49.6-.1,32-.1ZM32,59.9c-15.4,0-28-12.6-28-28S16.5,3.9,32,3.9s28,12.6,28,28-12.6,28-28,28Z"/>
  </g>
  <g id="Layer_2">
    <g id="eye">
      <g>
        <path class="st0" d="M51.6,47.6c-.5-2-3.9-14.8-19.2-14.8s-19.2,14.9-19.2,15c0,.3,0,.7.3,1,.2.3.6.4.9.4h36.1c.7,0,1.2-.5,1.2-1.2v-.5h0ZM16,46.8c1-3.4,4.8-11.6,16.5-11.6s15.4,8.2,16.5,11.6c0,0-33,0-33,0Z"/>
        <path class="st0" d="M32.5,28.5c5.5,0,9.9-4.4,9.9-9.9s-4.4-9.9-9.9-9.9-9.9,4.4-9.9,9.9,4.4,9.9,9.9,9.9ZM32.5,11.2c4.1,0,7.5,3.4,7.5,7.5s-3.4,7.5-7.5,7.5-7.5-3.4-7.5-7.5,3.4-7.5,7.5-7.5Z"/>
      </g>
    </g>
  </g>
</svg>