<?xml version="1.0" encoding="UTF-8"?>
<svg id="Layer_2" xmlns="http://www.w3.org/2000/svg" version="1.1" viewBox="0 0 144.9 399.2">
  <!-- Generator: Adobe Illustrator 30.0.0, SVG Export Plug-In . SVG Version: 2.1.1 Build 123)  -->
  <defs>
    <style>
      .st0 {
        stroke-width: 4px;
      }

      .st0, .st1 {
        fill: none;
        stroke: #3e5539;
        stroke-miterlimit: 10;
      }

      .st1 {
        stroke-width: 8px;
      }
    </style>
  </defs>
  <g id="Layer_2-2">
    <g>
      <path class="st1" d="M67.5,398.9c-1.1-15.4-17.1-41.5-18.5-56.8-2.3-25.3-4-33,.3-57.1,5.5-30.8.3-13.2,8.9-44.1,2.8-10.2,21.3-60.6,24.4-70.8,2.8-9.2,4-18.9,5.2-28.4,1.7-13.8,3.3-27.5,5-41.3"/>
      <path class="st0" d="M88,99.2c-18.8,10.3-40.5,17.1-61.6,13.8-2.2-.3-4.4-.8-6.2-2s-3.3-3.2-3.2-5.4c10-2.7,19.7-6.9,28.5-12.3"/>
      <path class="st0" d="M91.5,99.8c9.3,4.5,20.4,5.7,30.1,2.2,9.7-3.5,17.8-11.8,20.1-21.8.8-3.2.9-6.6,1.1-9.9-6.1-2.2-12.3-3.3-18.8-2.9"/>
      <path class="st0" d="M92.8,99.4c2-7.3,7.1-26.6,4.6-34-2.8-8.4-5.5-16.8-9.8-24.6-1.3-2.3-2.7-4.6-4.7-6.3-1.3-1-2.8-1.8-4.3-2.5-2.3-1.1-4.7-2.3-7-3.4-7.4,8-10.4,19.9-11.4,30.7-.5,5.2-.8,10.6.9,15.5,1.2,3.5,3.3,6.7,5.7,9.5,4.9,5.8,18.1,13.9,25.1,17"/>
      <path class="st0" d="M59.8,70.8c-3.9-4.4-10.9-10.8-16.3-13.2-3.2-1.4-6.7-2-10.2-2.4-4.1-.5-8.7-.8-12,1.6-2.7,8.7.9,18.7,7.2,25.3,6.3,6.5,15.1,10.2,23.9,12.5,8.8,2.3,32.7,5.1,41.5,7.1"/>
      <path class="st0" d="M21,65.1c-4.3-4.4-9.2-7.3-14.2-8.5-1.6-.4-3.2-.6-4.5-2.3"/>
      <path class="st0" d="M1.5,54c3.4,4.1,4.5,9.6,7,14.3,2,3.7,4.8,6.8,7.9,9.7,7.7,7.1,16.9,12.4,26.8,15.7"/>
      <path class="st0" d="M24.8,54.7c-3.4-5-5.9-10.5-7.3-16.4,7.3.2,14.8,2.4,20.6,6.7,1.2.9,2.4,1.9,3.2,3.1,1.2,1.7,2.2,7.8,2.7,9.9-1.9-4.7-3-13.7-3.8-18.7,4.2.2,8.2,2.1,11.9,4,3.3,1.6,6.6,3.3,9,6"/>
      <path class="st0" d="M55.2,44c1-5.2,2-10.4,3-15.6.4-2.3.9-4.6,1.9-6.5,2.8,3.6,5.9,7.8,8.1,12.2"/>
      <path class="st0" d="M51.9,36.5c-2.6-3.7-6.9-5.8-9.7-9.4-2.1-2.6-3.2-5.8-4.3-9-4.3,4.7-6.5,11-5.2,17.3.5,2.5,1.5,5,2.5,7.4"/>
      <path class="st0" d="M52.4,41.8c-.2-3.7-.3-7.5-.5-11.2-.1-3-.3-6.1,0-9.1.5-7.4,3.1-13.7,6.3-17.5"/>
      <path class="st0" d="M55.3,4c8.7,1.5,17.3,7.4,21.2,14.2"/>
      <path class="st0" d="M71.2,28.8c2.6-4.4,4.5-10.3,8-13.7s6.9-5.3,9.6-9.8c1.3,1.7,2.9,3.4,4,5.4,2.3-3,6-4.7,8.3-7.7,5.8,5.8,9.1,14.9,8,23.7"/>
      <path class="st0" d="M81.7,33.9c6.9-6.3,13.8-12.6,20.7-18.9,3.1,4.1,6,8.9,7.6,13.9"/>
      <path class="st0" d="M95.9,19.7c-.4-2.5-1.6-4.7-3.3-6.3-1.1,2.4-3.5,3.6-5.6,5-4.4,3-8.6,7-10.5,12.2"/>
      <path class="st0" d="M97.8,67.5c.2-7.8,3.3-15.7,5.2-23.2,1.9-7.6,5.7-15,11.9-19.8,3.2-2.5,6.8-4.1,10.5-5.8,7,4.9,9.8,14.7,9.1,23.2s-4.4,16.5-8.3,24.1c-3.1,6-6.5,12.2-12,16-5.7,3.9-14.8,13.2-20.3,17.4"/>
    </g>
  </g>
</svg>