<?xml version="1.0" encoding="UTF-8"?>
<svg id="Layer_2" xmlns="http://www.w3.org/2000/svg" version="1.1" viewBox="0 0 176.7 374.7">
  <!-- Generator: Adobe Illustrator 30.0.0, SVG Export Plug-In . SVG Version: 2.1.1 Build 123)  -->
  <defs>
    <style>
      .st0 {
        stroke-width: 4px;
      }

      .st0, .st1 {
        fill: none;
        stroke: #3e5539;
        stroke-miterlimit: 10;
      }

      .st1 {
        stroke-width: 8px;
      }
    </style>
  </defs>
  <g id="Layer_2-2">
    <g>
      <g>
        <path class="st0" d="M63.5,35.9c-7.5,6.1-14.5,13.3-18,22.4-2.2,5.7-2.9,11.8-3.5,17.8-.8,7.1-1.6,14.2-2.4,21.2,7.2-5.2,14.8-9.9,22.7-13.9,2.8-1.4,5.7-2.8,8.2-4.6,8.1-5.8,12.6-15.4,15.2-25,1.5-5.6,2.7-11.4,3.7-17.1.5-3,5.6-12.1,3.2-14.7-5.5-5.9-24.8,10.5-29.1,14h0Z"/>
        <path class="st0" d="M147.1,28.5c3.9,1.7,7.7,3.8,10.9,6.6,3.1,2.8,5.5,6.3,7.6,9.9,7,12.4,10.1,27,8.8,41.1-1.1.7-2.5,0-3.6-.6-6.3-3.9-12.6-7.8-18.9-11.7-8.7-5.4-17.6-10.9-25-18-6.1-5.9-11.1-12.7-17.1-18.8-3.5-3.5-13.6-9.8-13.2-15.4.4-5.9,11.2-2.7,15.2-2.3,12.1,1.4,24.2,4.1,35.4,9.1h0Z"/>
        <path class="st0" d="M121.7,101.6c-3.4-2.2-13.4-10.2-16.1-13.3-4.3-5.1-8.7-10.1-13-15.2-2.2-2.6-4.6-5.3-5.4-8.6-.6-2.3-.5-4.8-.3-7.2.9-12.8,3.5-25.4,6-37.9,1.2,4.8,4.9,8.6,8.2,12.3,7.3,8.3,13.4,17.6,19.4,26.9,2.9,4.5,5.9,9.2,7,14.4,2.1,10.1-2.9,20.2-8.3,29"/>
        <path class="st0" d="M58.1,86.1c-2.5,9.6-3.4,22.5-2.2,32.4,10.4-1.9,17.9-10.7,27.1-15.8,2.4-1.3,5.2-2.2,7-4.4,2.6-3.2,5.9-12.9,5.9-16.4s-.4-2.5-1.3-6"/>
        <path class="st0" d="M70.4,113.1c1.2,3,4.6,8.4,7.8,8.5,1.1,0,2.2-.3,3.3-.8,10.2-4.2,21.8-20.3,24.1-31"/>
        <path class="st0" d="M154.2,76.2c-.5,5.2,2.1,15.4,3.1,20.5.4,2.3.3,4.7.2,7-.1,3.2-.3,6.4-.4,9.5-5.9-.8-11.8-2.1-17.5-3.8-2.4-.7-4.7-1.5-6.8-2.7-3.4-2.1-7.4-7-9.8-10.1"/>
        <path class="st0" d="M101,99.5c1.8,3.8,7.1,9.1,10.5,11.4,2.1,1.5,4.2,2.9,6.6,3.9,1.7.7,3.5,1.2,5.2,1.9,3.5,1.4,6.7,3.7,9,6.6,1-.5,1.1-1.8,1.1-2.9,0-2.9.9-9.3.9-12.2"/>
        <path class="st0" d="M87.3,118.8c3.1,5.6,11.1,8.8,16.3,12.5,1.8,1.3,3.9,2.9,6.1,2.4,1.4-.3,2.4-1.5,3.3-2.6,3.5-4,8.3-9.5,11.8-13.6"/>
      </g>
      <path class="st1" d="M95.4,19.3C84.3,3.2,59.2-.2,42.1,9.3,25,18.8,14.5,37.2,8.8,55.9c-4,13.1-6.2,27.1-3.7,40.6,5.4,29.9,31.3,51,51.7,73.6,49.7,55,72,130.3,76.6,204.3"/>
    </g>
  </g>
</svg>