<?xml version="1.0" encoding="UTF-8"?>
<svg id="Layer_2" xmlns="http://www.w3.org/2000/svg" version="1.1" viewBox="0 0 155.5 328.4">
  <!-- Generator: Adobe Illustrator 30.0.0, SVG Export Plug-In . SVG Version: 2.1.1 Build 123)  -->
  <defs>
    <style>
      .st0 {
        stroke-width: 4px;
      }

      .st0, .st1 {
        fill: none;
        stroke: #3e5539;
        stroke-miterlimit: 10;
      }

      .st1 {
        stroke-width: 8px;
      }
    </style>
  </defs>
  <g id="Layer_2-2">
    <g>
      <path class="st1" d="M99.6,326.6c-12.1-24.5-24.2-49-32.8-75-13.8-42-17.8-87.2-11.7-131.1"/>
      <path class="st0" d="M72.7,91.6c-4.5,5.8-5.6,13.6-9.6,19.7-4.9,7.4-13.7,11.5-22.5,12.7s-17.8-.1-26.5-1.4c-4.4-16.2,8.1-34.8,24.7-36.9-9.3-.2-17.7-6-23.4-13.3S6.2,56.4,2.9,47.7c7.6-.1,15.3-.3,22.9-.4-2.2-6.4-4.5-12.9-4.7-19.7s1.8-14,7-18.4c5,4.1,10,8.3,15,12.4,5.7-6.4,7.5-17.3,15.8-19.4,4.9-1.2,10.1,1.5,13.2,5.5,3.1,4,4.6,8.9,6.1,13.8,2.4-10.9,15.5-15.1,26.4-17.4,1.3-.3,2.8-.5,4,0,.8.4,1.4,1.2,1.9,2,8.1,12.5-1.7,43.3-11.8,54.3,6.5-11.7,26.3-25.7,37.8-25.9.6,11.1-5.1,22.3-14.3,28.4,8.9-6.8,19.9-10.5,31.1-10.5-.7,19.2-17.9,36.4-37.1,37.1-.5,10.3,20,11,20,21.3-10,2.6-20.2,5.3-30.5,5s-22.2-13.1-28.9-21c7.2,2.8,10.4,13.6,17.6,16.4,1.7.7,2.1,2.7,6.4,4.2,1.3.5,4.6,2.7,4.7,4,1.4,11-2.7,10-8.9,19.1-1.2,1.8-3.2,4.5-5.3,4.7-1.5.2-12.3-7.4-13.7-8.1-13.2-7-15.8-3.7-20.7-17.8"/>
      <path class="st0" d="M76.6,91.8c-2-3.2-4.3-6.1-7-8.9-3-3.1-6.4-5.9-8.8-9.3-1.2-1.7-2.1-3.4-3-5.2-4.6-8.3-10.6-16.2-18.7-22.2-2.9-2.2-6.4-4.4-7.2-7.7-4.1,12.5-4,26.3.7,38.7.6,1.6,1.3,3.1,2.3,4.5,1.5,2.1,3.6,3.7,6,5,8.1,4.5,24,4.4,33.6,4.7"/>
      <path class="st0" d="M77.4,86.7c-.9-.8-.9-2.2-.4-3.3.5-1.1,1.5-1.9,2.4-2.6,13-10.2,29.4-15,45.5-18.5,1.8,3.1,1.8,7,.8,10.4s-2.9,6.5-4.8,9.5c-1.1,1.8-2.3,3.6-3.8,5.1-3.3,3.3-8.1,4.7-12.6,5.9-2.9.8-5.9,1.6-8.9,2.1-8.9,1.4-15.5-.5-23.7-4.3"/>
      <path class="st0" d="M58.3,68.4c1.4-3.6,5.4-5.5,9.1-6.8,2.5-.8,5-1.4,7.6-1.9,2.7-.5,5.6-.8,8.2.1,1.9.7,3.6,2,5.1,3.3,2.7,2.4,5,5.1,7,8.1"/>
      <path class="st0" d="M78.3,17.9c-1.4,7.5-1.5,16.1-1.5,24.3s.4,11.3.4,16.4"/>
      <path class="st0" d="M43.3,20.4c0,1.4,3,11.3,3.3,12.6,3.2,11.1,6.7,22,10.5,32.7"/>
    </g>
  </g>
</svg>