<?xml version="1.0" encoding="UTF-8"?>
<svg id="Layer_2" xmlns="http://www.w3.org/2000/svg" version="1.1" viewBox="0 0 197.3 302.9">
  <!-- Generator: Adobe Illustrator 30.0.0, SVG Export Plug-In . SVG Version: 2.1.1 Build 123)  -->
  <defs>
    <style>
      .st0 {
        stroke-width: 4px;
      }

      .st0, .st1, .st2 {
        fill: none;
        stroke: #3e5539;
        stroke-miterlimit: 10;
      }

      .st1 {
        stroke-width: 6px;
      }

      .st2 {
        stroke-width: 8px;
      }
    </style>
  </defs>
  <g id="Layer_2-2">
    <g>
      <path class="st2" d="M90.6,302.8c.4-15.9-1.7-31.3-3.7-46.1-2.9-21.9-5.9-43.7-8.8-65.6-4.1-30-8.1-60.1-13-89-1.7-9.8-3.4-19.5-4.5-29.9-1-9.5-1.4-19.5-1.8-29.4-.6-14.2-1.2-28.4-1.8-42.7"/>
      <path class="st1" d="M76.7,175.2c-.9-13.9,1.4-28.3,1.6-42.2,0-5.5.2-10.9,1.1-16.3,1.6-9.6,5.5-18.6,10.4-27.1,9-15.7,21.4-29.5,36-40.3"/>
      <path class="st0" d="M61.5,33.5c-.7-4.6,1.2-9.2,4.2-12.8s6.9-6.2,10.7-8.8c5.2-3.5,10.6-7.1,16.6-8.9,6-1.8,20.5,2,26.7,2.5"/>
      <path class="st0" d="M56.7,35.2c1.8,6.1,7.9,10.1,14.2,11.3s12.6,0,18.9-1.1c2.7-.5,5.3-1,7.8-2.1,5.1-2.2,8.9-6.6,12.1-11.2,5.3-7.8,9.4-16.9,8.6-26.3"/>
      <path class="st0" d="M39.6,84c4.4,2.1,9.9,1.8,14-.8s6.9-7.2,7.1-12.1c.4-10.9-14.9-20.6-25.5-23.5s-21.6-2.4-32.5-1.9c.6,12,10.4,21.5,20.7,27.6,2.2,1.3,4.5,2.5,6.4,4.2,4.1,3.7,4.7,4.1,9.8,6.5Z"/>
      <path class="st0" d="M20.9,160.2c11.8,6,25.7,6.2,38.9,4.7,3.1-.4,6.4-.9,8.5-3.1,2.4-2.6,2.6-6.7,1.1-10s-4.1-5.7-6.9-7.9c-13.5-10.8-31.1-16.7-47.8-20.1-25.9-5.3-6.1,30.2,6.2,36.5h0Z"/>
      <path class="st0" d="M61,38.2c6.7-11.4,18.2-19.8,31.1-22.6"/>
      <path class="st0" d="M59.8,75.6c-9-8.4-20.6-13.3-32-17.9"/>
      <path class="st0" d="M69.2,158.8c-11.7-10.4-26.7-17.1-42.3-19.1"/>
      <path class="st0" d="M121.4,53.1c11,3.5,26.9,6,38.1,3.1,11.9-3.1,23-8.6,33.9-14.3.8-.4,1.6-.9,1.8-1.7.3-1.2-.9-2.2-1.9-2.9-15.8-9.7-47.1-21.5-60.9-4.9-2.9,3.5-16.7,18.7-8.8,19.6,3.5.4,9.7-4.7,12.7-6.1,5.6-2.6,11.6-4.5,17.8-5.4"/>
      <path class="st0" d="M147.6,108.7c-1.5-1.7-3.9-2.3-6.2-2.7-13.6-2.2-28.3-.7-40.6-7-1.3-.7-2.6-1.5-3.4-2.7-1-1.5-1.1-3.4-1-5.2.3-4.3,2.1-8.5,5.3-11.4,3.2-2.9,7.8-4.2,12-3.1,4.8,1.3,8.7-1.5,13.6-1.5,1.2,0,2.4,0,3.5.3,1.4.4,2.5,1.2,3.6,2,10.1,7.7,12.6,18.6,13.1,31.2h0Z"/>
      <path class="st0" d="M93.3,82.7c5.1,1,10.3.5,15.5.9s10.6,2,13.9,5.9"/>
      <path class="st0" d="M107.7,195c-5.7,1.4-34.5,18.3-19.7,23.1,3.8,1.2,8,0,11.7-1.4,19.9-7.8,37.6-17.7,45.1-37.8-3.5-4.3-9.5-5.6-15-5.8-21.2-.5-41.9,13.9-48.8,34-.7,2,.2,4.5,1.8,6.7"/>
      <path class="st0" d="M59.7,214.5c-3.3-.5-6.6-1.1-9.9-1.6-12.7-2.1-25.9-4.2-38.4-.8-1.6.4-3.4,1.1-3.9,2.7-.3,1,0,2.1.3,3.2,4.1,11.5,14.3,17.6,25.9,19.7,9.2,1.6,18.2,4.6,27.3,6.1,7.9,1.3,14.6-2.1,17.3-10.2,4.2-12.7-8.8-17.4-18.7-19Z"/>
      <path class="st0" d="M84.3,234.3c-.5-1.8-2.5-2.6-4.3-3.1-12.6-3.9-25.7-6.2-38.9-7"/>
    </g>
  </g>
</svg>