<?xml version="1.0" encoding="UTF-8"?>
<svg id="Layer_2" xmlns="http://www.w3.org/2000/svg" version="1.1" viewBox="0 0 142.5 184.8">
  <!-- Generator: Adobe Illustrator 30.0.0, SVG Export Plug-In . SVG Version: 2.1.1 Build 123)  -->
  <defs>
    <style>
      .st0, .st1 {
        stroke-width: 4px;
      }

      .st0, .st1, .st2 {
        stroke: #3e5539;
        stroke-miterlimit: 10;
      }

      .st0, .st2 {
        fill: none;
      }

      .st1 {
        fill: #231f20;
      }

      .st2 {
        stroke-width: 6px;
      }
    </style>
  </defs>
  <g id="Layer_2-2">
    <g>
      <path class="st2" d="M40.1,137.8c28.5-19.9,63.2-30.8,97.9-30.8C123.2,70.2,91.6,39.8,86.2.4,87.6,10.3.9,15.6,3,41c1.1,12.8,17.4,32.5,22.3,45.1,6.5,16.7,11.5,34.1,14.8,51.8h0Z"/>
      <path class="st2" d="M40.7,141.2c27.7-4.3,55.5-9.9,81.2-20.9,6-2.6,12.1-5.6,15.8-11"/>
      <path class="st1" d="M121.3,164.2c.6,1.2,1.5,2.2,2.4,3.1.3.3.7.7,1.2.8.6,0,1.1-.4,1.5-.8,1.5-1.4,3-3,3.2-5.1.2-1.6-.6-3.2-1.6-4.4-1.7-2-4.6-5.1-6.7-2.7-1.6,1.8-.8,7.2,0,9.1h0Z"/>
      <path class="st0" d="M60,55.4c2.7,1.7,4.5,4.6,5.5,7.6s1.4,6.2,1.7,9.4c.2,1.6.3,3.1,0,4.7-.5,2.4-2.1,4.5-4.3,5.6s-4.9,1.1-7.1,0c-.8-.4-1.5-1-1.5-1.9,0-.8.8-1.3,1.4-1.7,3-2.1,5-5.3,6.8-8.5.8-1.3,2.6-3.3,3.3-4.6"/>
      <path class="st0" d="M80.6,73.6c.5-4.6-10.9-8.6-12.9-3.3-3.2,8.3,12.7,5.3,12.9,3.3Z"/>
      <path class="st1" d="M90,150.9c.6,1.2,1.5,2.2,2.4,3.1.3.3.7.7,1.2.8.6,0,1.1-.4,1.5-.8,1.5-1.4,3-3,3.2-5.1.2-1.6-.6-3.2-1.6-4.4-1.7-2-4.6-5.1-6.7-2.7-1.6,1.8-.8,7.2,0,9.1h0Z"/>
      <path class="st1" d="M76.5,178.9c.6,1.2,1.5,2.2,2.4,3.1.3.3.7.7,1.2.8.6,0,1.1-.4,1.5-.8,1.5-1.4,3-3,3.2-5.1.2-1.6-.6-3.2-1.6-4.4-1.7-2-4.6-5.1-6.7-2.7-1.6,1.8-.8,7.2,0,9.1h0Z"/>
    </g>
  </g>
</svg>